<?xml version="1.0" encoding="utf-8"?>
<svg viewBox="64.276 1.003 370.179 154.811" xmlns="http://www.w3.org/2000/svg">
  <defs>
    <style>.cls-1{fill:#009ee3;}.cls-1,.cls-2,.cls-3{fill-rule:evenodd;}.cls-2{fill:#113984;}.cls-3{fill:#172c70;}</style>
  </defs>
  <rect x="64.276" width="370.179" height="154.811" style="fill: rgba(255, 255, 255, 0); fill-opacity: 0;" y="1.003"/>
  <path class="cls-1" d="M 99.788 53.143 L 124.445 53.143 C 137.683 53.143 142.667 59.844 141.896 69.691 C 140.623 85.945 130.797 94.939 117.762 94.939 L 111.181 94.939 C 109.393 94.939 108.19 96.121 107.707 99.329 L 104.913 117.978 C 104.727 119.187 104.092 119.886 103.136 119.983 L 87.646 119.983 C 86.187 119.983 85.673 118.868 86.054 116.457 L 95.5 56.674 C 95.868 54.281 97.18 53.143 99.788 53.143 Z" style=""/>
  <path class="cls-2" d="M 206.833 52.036 C 215.152 52.036 222.827 56.548 221.778 67.794 C 220.505 81.159 213.344 88.555 202.047 88.586 L 192.176 88.586 C 190.757 88.586 190.07 89.745 189.7 92.119 L 187.79 104.256 C 187.504 106.089 186.562 106.993 185.175 106.993 L 175.991 106.993 C 174.527 106.993 174.018 106.057 174.343 103.963 L 181.923 55.319 C 182.298 52.926 183.196 52.036 184.831 52.036 L 206.815 52.036 Z M 191.877 78.079 L 199.355 78.079 C 204.033 77.9 207.139 74.661 207.451 68.819 C 207.641 65.21 205.204 62.625 201.328 62.645 L 194.289 62.676 L 191.877 78.079 L 191.877 78.079 Z M 246.745 103.269 C 247.586 102.506 248.438 102.111 248.317 103.053 L 248.018 105.306 C 247.865 106.484 248.33 107.108 249.424 107.108 L 257.584 107.108 C 258.958 107.108 259.627 106.553 259.964 104.427 L 264.993 72.872 C 265.247 71.287 264.858 70.512 263.656 70.512 L 254.681 70.512 C 253.873 70.512 253.479 70.964 253.269 72.197 L 252.937 74.139 C 252.766 75.15 252.301 75.329 251.868 74.311 C 250.347 70.709 246.466 69.091 241.049 69.219 C 228.466 69.48 219.983 79.033 219.073 91.279 C 218.372 100.748 225.156 108.189 234.105 108.189 C 240.597 108.189 243.499 106.28 246.771 103.289 L 246.771 103.289 Z M 239.909 98.413 C 234.494 98.413 230.719 94.091 231.503 88.796 C 232.285 83.501 237.352 79.179 242.767 79.179 C 248.184 79.179 251.958 83.501 251.175 88.796 C 250.391 94.091 245.332 98.413 239.909 98.413 L 239.909 98.413 Z M 280.961 70.41 L 272.686 70.41 C 270.981 70.41 270.288 71.683 270.829 73.248 L 281.101 103.327 L 271.026 117.641 C 270.18 118.837 270.835 119.926 272.024 119.926 L 281.324 119.926 C 282.43 120.054 283.509 119.523 284.085 118.569 L 315.679 73.255 C 316.653 71.86 316.195 70.397 314.597 70.397 L 305.795 70.397 C 304.287 70.397 303.681 70.995 302.816 72.248 L 289.641 91.342 L 283.755 72.204 C 283.411 71.046 282.552 70.41 280.967 70.41 Z" style=""/>
  <path class="cls-1" d="M 348.545 52.036 C 356.864 52.036 364.54 56.548 363.489 67.794 C 362.216 81.159 355.056 88.555 343.759 88.586 L 333.894 88.586 C 332.475 88.586 331.787 89.745 331.419 92.119 L 329.509 104.256 C 329.223 106.089 328.281 106.993 326.893 106.993 L 317.709 106.993 C 316.246 106.993 315.737 106.057 316.061 103.963 L 323.654 55.306 C 324.03 52.913 324.927 52.023 326.562 52.023 L 348.545 52.023 Z M 333.589 78.079 L 341.067 78.079 C 345.745 77.9 348.851 74.661 349.163 68.819 C 349.353 65.21 346.916 62.625 343.04 62.645 L 336 62.676 L 333.589 78.079 L 333.589 78.079 Z M 388.457 103.269 C 389.297 102.506 390.151 102.111 390.029 103.053 L 389.73 105.306 C 389.577 106.484 390.042 107.108 391.136 107.108 L 399.296 107.108 C 400.671 107.108 401.339 106.553 401.676 104.427 L 406.704 72.872 C 406.958 71.287 406.57 70.512 405.368 70.512 L 396.407 70.512 C 395.599 70.512 395.203 70.964 394.993 72.197 L 394.663 74.139 C 394.49 75.15 394.025 75.329 393.593 74.311 C 392.072 70.709 388.19 69.091 382.774 69.219 C 370.191 69.48 361.707 79.033 360.797 91.279 C 360.097 100.748 366.882 108.189 375.83 108.189 C 382.321 108.189 385.223 106.28 388.495 103.289 L 388.495 103.289 Z M 381.628 98.413 C 376.211 98.413 372.438 94.091 373.22 88.796 C 374.004 83.501 379.069 79.179 384.486 79.179 C 389.902 79.179 393.676 83.501 392.894 88.796 C 392.11 94.091 387.045 98.413 381.628 98.413 L 381.628 98.413 Z M 419.262 107.159 L 409.842 107.159 C 409.144 107.189 408.589 106.576 408.689 105.886 L 416.964 53.467 C 417.126 52.73 417.775 52.203 418.529 52.194 L 427.949 52.194 C 428.647 52.162 429.201 52.775 429.1 53.467 L 420.827 105.886 C 420.669 106.627 420.019 107.16 419.262 107.17 Z" style=""/>
  <path class="cls-2" d="M 84.367 32.566 L 109.049 32.566 C 115.999 32.566 124.248 32.789 129.759 37.658 C 133.444 40.91 135.379 46.084 134.934 51.66 C 133.419 70.505 122.147 81.063 107.025 81.063 L 94.856 81.063 C 92.782 81.063 91.413 82.438 90.827 86.155 L 87.429 107.794 C 87.206 109.195 86.601 110.022 85.52 110.123 L 70.29 110.123 C 68.603 110.123 68.005 108.851 68.443 106.038 L 79.391 36.677 C 79.829 33.89 81.363 32.566 84.367 32.566 Z" style=""/>
  <path class="cls-3" d="M 91.184 83.959 L 95.493 56.674 C 95.868 54.281 97.18 53.136 99.788 53.136 L 124.445 53.136 C 128.525 53.136 131.828 53.772 134.412 54.95 C 131.936 71.727 121.085 81.045 106.879 81.045 L 94.729 81.045 C 93.1 81.05 91.903 81.865 91.184 83.959 Z" style=""/>
</svg>